# xmcd
#
# Track frame offsets: 
#        150
#        14085
#        38550
#        52145
#        63768
#        74865
#        88005
#        105134
#        122132
#        139976
#        156716
#        178771
#
# Disc length: 2618 seconds
#
# Revision: 0
# Processed by: cddbd v1.5.2PL0 Copyright (c) Steve Scherf et al.
# Submitted via: ExactAudioCopy v0.99pb4
#
DISCID=b20a380c
DTITLE=Aj Downing - River of Life
DYEAR=2008
DGENRE=Americana
TTITLE0=River of Life
TTITLE1=Magdalene
TTITLE2=Opichuan River
TTITLE3=Up North
TTITLE4=The Other Cheek
TTITLE5=Your Memory
TTITLE6=The Other Side
TTITLE7=Misery
TTITLE8=Onondaga
TTITLE9=Torn and Tattered
TTITLE10=Shelter From The Storm
TTITLE11=Blind Faith
EXTD=
EXTT0=
EXTT1=
EXTT2=
EXTT3=
EXTT4=
EXTT5=
EXTT6=
EXTT7=
EXTT8=
EXTT9=
EXTT10=
EXTT11=
PLAYORDER=
